<svg width="17" height="14" viewBox="0 0 17 14" fill="none" xmlns="http://www.w3.org/2000/svg">
<path d="M16.415 1.67111C15.9664 2.32736 15.424 2.88651 14.7878 3.34856C14.7945 3.44231 14.7978 3.58294 14.7978 3.77044C14.7978 4.64097 14.6706 5.51151 14.4161 6.38204C14.1617 7.24588 13.7733 8.07624 13.251 8.87312C12.7353 9.66999 12.1193 10.3765 11.4027 10.9925C10.6862 11.6019 9.82239 12.0908 8.81123 12.4591C7.80007 12.8207 6.71859 13.0015 5.56681 13.0015C3.75208 13.0015 2.09136 12.516 0.584665 11.545C0.81904 11.5718 1.0802 11.5852 1.36815 11.5852C2.87484 11.5852 4.21748 11.1231 5.39605 10.199C4.69292 10.1856 4.06346 9.97133 3.50766 9.55615C2.95185 9.13428 2.57016 8.59856 2.36257 7.94901C2.58355 7.98249 2.78779 7.99923 2.97529 7.99923C3.26324 7.99923 3.54783 7.9624 3.82908 7.88874C3.07908 7.73472 2.45632 7.36307 1.96078 6.77379C1.47194 6.1778 1.22752 5.48807 1.22752 4.70459V4.66441C1.68288 4.91888 2.17172 5.05615 2.69404 5.07624C2.25208 4.7816 1.90051 4.39655 1.63935 3.92111C1.37819 3.44566 1.24761 2.93004 1.24761 2.37423C1.24761 1.78495 1.39493 1.23919 1.68958 0.736956C2.49984 1.73472 3.48422 2.53495 4.6427 3.13763C5.80788 3.73361 7.05341 4.06508 8.37931 4.13204C8.32574 3.87758 8.29895 3.62981 8.29895 3.38874C8.29895 2.49142 8.61368 1.72803 9.24315 1.09856C9.87931 0.462402 10.646 0.144322 11.5434 0.144322C12.4809 0.144322 13.271 0.485839 13.9139 1.16888C14.6438 1.02825 15.3302 0.767089 15.9731 0.385393C15.7253 1.15548 15.2498 1.75146 14.5467 2.17334C15.1695 2.10638 15.7923 1.93896 16.415 1.67111Z" fill="white"/>
</svg>
