<svg width="125" height="71" viewBox="0 0 125 71" fill="none" xmlns="http://www.w3.org/2000/svg">
<path d="M81.1392 18.44V23.432H75.1232V41H68.8512V23.432H62.8992V18.44H81.1392ZM82.399 29.672C82.399 27.4533 82.8577 25.48 83.775 23.752C84.7137 22.0027 86.0363 20.648 87.743 19.688C89.4497 18.7067 91.4123 18.216 93.631 18.216C96.447 18.216 98.815 18.9733 100.735 20.488C102.655 21.9813 103.892 24.0187 104.447 26.6H97.695C97.2897 25.7467 96.7243 25.096 95.999 24.648C95.295 24.2 94.4737 23.976 93.535 23.976C92.0843 23.976 90.9217 24.4987 90.047 25.544C89.1937 26.568 88.767 27.944 88.767 29.672C88.767 31.4213 89.1937 32.8187 90.047 33.864C90.9217 34.888 92.0843 35.4 93.535 35.4C94.4737 35.4 95.295 35.176 95.999 34.728C96.7243 34.28 97.2897 33.6293 97.695 32.776H104.447C103.892 35.3573 102.655 37.4053 100.735 38.92C98.815 40.4133 96.447 41.16 93.631 41.16C91.4123 41.16 89.4497 40.68 87.743 39.72C86.0363 38.7387 84.7137 37.384 83.775 35.656C82.8577 33.9067 82.399 31.912 82.399 29.672ZM124.116 18.44V23.432H118.1V41H111.828V23.432H105.876V18.44H124.116ZM65.2691 52.114C65.2691 51.162 65.4884 50.308 65.9271 49.552C66.3751 48.796 66.9771 48.208 67.7331 47.788C68.4984 47.3587 69.3338 47.144 70.2391 47.144C71.2751 47.144 72.1944 47.4007 72.9971 47.914C73.8091 48.418 74.3971 49.1367 74.7611 50.07H72.8431C72.5911 49.5567 72.2411 49.174 71.7931 48.922C71.3451 48.67 70.8271 48.544 70.2391 48.544C69.5951 48.544 69.0211 48.6887 68.5171 48.978C68.0131 49.2673 67.6164 49.6827 67.3271 50.224C67.0471 50.7653 66.9071 51.3953 66.9071 52.114C66.9071 52.8327 67.0471 53.4627 67.3271 54.004C67.6164 54.5453 68.0131 54.9653 68.5171 55.264C69.0211 55.5533 69.5951 55.698 70.2391 55.698C70.8271 55.698 71.3451 55.572 71.7931 55.32C72.2411 55.068 72.5911 54.6853 72.8431 54.172H74.7611C74.3971 55.1053 73.8091 55.824 72.9971 56.328C72.1944 56.832 71.2751 57.084 70.2391 57.084C69.3244 57.084 68.4891 56.874 67.7331 56.454C66.9771 56.0247 66.3751 55.432 65.9271 54.676C65.4884 53.92 65.2691 53.066 65.2691 52.114ZM77.9325 55.712H81.2225V57H76.3365V47.27H77.9325V55.712ZM83.8466 47.27V53.472C83.8466 54.2093 84.0379 54.7647 84.4206 55.138C84.8126 55.5113 85.3539 55.698 86.0446 55.698C86.7446 55.698 87.2859 55.5113 87.6686 55.138C88.0606 54.7647 88.2566 54.2093 88.2566 53.472V47.27H89.8526V53.444C89.8526 54.2373 89.6799 54.9093 89.3346 55.46C88.9892 56.0107 88.5272 56.4213 87.9486 56.692C87.3699 56.9627 86.7306 57.098 86.0306 57.098C85.3306 57.098 84.6912 56.9627 84.1126 56.692C83.5432 56.4213 83.0906 56.0107 82.7546 55.46C82.4186 54.9093 82.2506 54.2373 82.2506 53.444V47.27H83.8466ZM94.8439 57.098C94.1906 57.098 93.6026 56.986 93.0799 56.762C92.5572 56.5287 92.1466 56.202 91.8479 55.782C91.5492 55.362 91.3999 54.872 91.3999 54.312H93.1079C93.1452 54.732 93.3086 55.0773 93.5979 55.348C93.8966 55.6187 94.3119 55.754 94.8439 55.754C95.3946 55.754 95.8239 55.6233 96.1319 55.362C96.4399 55.0913 96.5939 54.746 96.5939 54.326C96.5939 53.9993 96.4959 53.7333 96.2999 53.528C96.1132 53.3227 95.8752 53.164 95.5859 53.052C95.3059 52.94 94.9139 52.8187 94.4099 52.688C93.7752 52.52 93.2572 52.352 92.8559 52.184C92.4639 52.0067 92.1279 51.736 91.8479 51.372C91.5679 51.008 91.4279 50.5227 91.4279 49.916C91.4279 49.356 91.5679 48.866 91.8479 48.446C92.1279 48.026 92.5199 47.704 93.0239 47.48C93.5279 47.256 94.1112 47.144 94.7739 47.144C95.7166 47.144 96.4866 47.382 97.0839 47.858C97.6906 48.3247 98.0266 48.9687 98.0919 49.79H96.3279C96.2999 49.4353 96.1319 49.132 95.8239 48.88C95.5159 48.628 95.1099 48.502 94.6059 48.502C94.1486 48.502 93.7752 48.6187 93.4859 48.852C93.1966 49.0853 93.0519 49.4213 93.0519 49.86C93.0519 50.1587 93.1406 50.406 93.3179 50.602C93.5046 50.7887 93.7379 50.938 94.0179 51.05C94.2979 51.162 94.6806 51.2833 95.1659 51.414C95.8099 51.5913 96.3326 51.7687 96.7339 51.946C97.1446 52.1233 97.4899 52.3987 97.7699 52.772C98.0592 53.136 98.2039 53.626 98.2039 54.242C98.2039 54.7367 98.0686 55.2033 97.7979 55.642C97.5366 56.0807 97.1492 56.4353 96.6359 56.706C96.1319 56.9673 95.5346 57.098 94.8439 57.098ZM106.08 47.27V48.572H103.49V57H101.894V48.572H99.2904V47.27H106.08ZM109 48.558V51.414H112.36V52.716H109V55.698H112.78V57H107.404V47.256H112.78V48.558H109ZM119.507 57L117.267 53.108H116.049V57H114.453V47.27H117.813C118.56 47.27 119.19 47.4007 119.703 47.662C120.226 47.9233 120.613 48.2733 120.865 48.712C121.127 49.1507 121.257 49.6407 121.257 50.182C121.257 50.8167 121.071 51.3953 120.697 51.918C120.333 52.4313 119.769 52.7813 119.003 52.968L121.411 57H119.507ZM116.049 51.834H117.813C118.411 51.834 118.859 51.6847 119.157 51.386C119.465 51.0873 119.619 50.686 119.619 50.182C119.619 49.678 119.47 49.286 119.171 49.006C118.873 48.7167 118.42 48.572 117.813 48.572H116.049V51.834Z" fill="white"/>
<circle cx="34" cy="35" r="9" fill="white"/>
<circle cx="34" cy="35" r="10" stroke="white" stroke-opacity="0.2" stroke-width="2"/>
<circle cx="19" cy="12" r="6" fill="white"/>
<circle cx="19" cy="12" r="7" stroke="white" stroke-opacity="0.2" stroke-width="2"/>
<circle cx="8" cy="35" r="6" fill="white"/>
<circle cx="8" cy="35" r="7" stroke="white" stroke-opacity="0.2" stroke-width="2"/>
<circle cx="19" cy="57" r="6" fill="white"/>
<circle cx="19" cy="57" r="7" stroke="white" stroke-opacity="0.2" stroke-width="2"/>
<circle cx="43" cy="63" r="6" fill="white"/>
<circle cx="43" cy="63" r="7" stroke="white" stroke-opacity="0.2" stroke-width="2"/>
<circle cx="43" cy="8" r="6" fill="white"/>
<circle cx="43" cy="8" r="7" stroke="white" stroke-opacity="0.2" stroke-width="2"/>
</svg>
