<svg width="19" height="14" viewBox="0 0 19 14" fill="none" xmlns="http://www.w3.org/2000/svg">
<path d="M0.966237 5.52532L18.3006 0.0182209C18.5609 -0.064728 18.8093 0.173754 18.7373 0.437193L15.7045 11.533C15.6509 11.729 15.4403 11.8362 15.2502 11.7642L9.12605 9.44795C8.88526 9.35681 8.82561 9.04307 9.01647 8.87024L13.8206 4.51732C14.116 4.2499 13.7972 3.77795 13.4387 3.95242L5.39644 7.86392C5.30836 7.9068 5.20647 7.91 5.11584 7.87301L0.940535 6.17277C0.642143 6.05103 0.659042 5.62285 0.966265 5.52542L0.966237 5.52532ZM10.6021 6.46351C10.7529 6.33255 10.5855 6.09651 10.4118 6.19533L6.57923 8.28829C6.2336 8.48504 6.07129 8.89556 6.1888 9.27563L7.37264 13.2612C7.4328 13.4631 7.68626 13.5282 7.83618 13.3804L10.199 11.1438C10.2955 11.0484 10.2648 10.8855 10.14 10.8323L7.68823 9.61034C7.55356 9.54314 7.52706 9.36277 7.63626 9.25973L10.6019 6.46348L10.6021 6.46351Z" fill="white"/>
</svg>
